HIERARCHY
ROOT mixamorig:Hips
{
  OFFSET 0.000000 0.000000 0.000000
  CHANNELS 6 Xposition Yposition Zposition Xrotation Yrotation Zrotation
  JOINT mixamorig:Spine
  {
    OFFSET -2.721785 23.846754 2.011942
    CHANNELS 3 Xrotation Yrotation Zrotation
    JOINT mixamorig:Spine2
    {
      OFFSET -2.721785 23.846754 2.011942
      CHANNELS 3 Xrotation Yrotation Zrotation
      JOINT mixamorig:Neck
      {
        OFFSET 0.000000 3.794168 0.000000
        CHANNELS 3 Xrotation Yrotation Zrotation
        JOINT mixamorig:Head
        {
          OFFSET 0.000000 3.616294 0.000000
          CHANNELS 3 Xrotation Yrotation Zrotation
          End Site
          {
            OFFSET 0.000000 1.084888 0.000000
          }
        }
      }
      JOINT mixamorig:LeftShoulder
      {
        OFFSET 14.869504 1.490289 -6.285599
        CHANNELS 3 Xrotation Yrotation Zrotation
        JOINT mixamorig:LeftArm
        {
          OFFSET 8.240244 -5.869636 -13.075080
          CHANNELS 3 Xrotation Yrotation Zrotation
          JOINT mixamorig:LeftForeArm
          {
            OFFSET -11.957707 3.691441 -10.565373
            CHANNELS 3 Xrotation Yrotation Zrotation
            JOINT mixamorig:LeftHand
            {
              OFFSET -4.140924 1.948982 -1.245566
              CHANNELS 3 Xrotation Yrotation Zrotation
              End Site
              {
                OFFSET -1.242277 0.584695 -0.373670
              }
            }
          }
        }
      }
      JOINT mixamorig:RightShoulder
      {
        OFFSET -14.869504 1.490289 6.285599
        CHANNELS 3 Xrotation Yrotation Zrotation
        JOINT mixamorig:RightArm
        {
          OFFSET -1.922670 -23.388141 -12.917531
          CHANNELS 3 Xrotation Yrotation Zrotation
          JOINT mixamorig:RightForeArm
          {
            OFFSET 2.003331 14.137387 -21.097828
            CHANNELS 3 Xrotation Yrotation Zrotation
            JOINT mixamorig:RightHand
            {
              OFFSET 3.010116 6.425109 -4.530513
              CHANNELS 3 Xrotation Yrotation Zrotation
              End Site
              {
                OFFSET 0.903035 1.927533 -1.359154
              }
            }
          }
        }
      }
    }
  }
  JOINT mixamorig:LeftUpLeg
  {
    OFFSET 9.506946 0.418498 -0.262008
    CHANNELS 3 Xrotation Yrotation Zrotation
    JOINT mixamorig:LeftLeg
    {
      OFFSET 11.960976 -40.825369 -9.870072
      CHANNELS 3 Xrotation Yrotation Zrotation
      JOINT mixamorig:LeftFoot
      {
        OFFSET 15.618218 -37.517872 7.388456
        CHANNELS 3 Xrotation Yrotation Zrotation
        JOINT mixamorig:LeftToeBase
        {
          OFFSET -0.361343 -5.015856 -7.224799
          CHANNELS 3 Xrotation Yrotation Zrotation
          End Site
          {
            OFFSET -0.108403 -1.504757 -2.167440
          }
        }
      }
    }
  }
  JOINT mixamorig:RightUpLeg
  {
    OFFSET -9.506946 -0.418498 0.262008
    CHANNELS 3 Xrotation Yrotation Zrotation
    JOINT mixamorig:RightLeg
    {
      OFFSET -10.786019 -28.000506 0.300963
      CHANNELS 3 Xrotation Yrotation Zrotation
      JOINT mixamorig:RightFoot
      {
        OFFSET -3.934634 -38.949940 21.073509
        CHANNELS 3 Xrotation Yrotation Zrotation
        JOINT mixamorig:RightToeBase
        {
          OFFSET -7.856978 -3.494331 -5.244490
          CHANNELS 3 Xrotation Yrotation Zrotation
          End Site
          {
            OFFSET -2.357093 -1.048299 -1.573347
          }
        }
      }
    }
  }
}
MOTION
Frames: 13
Frame Time: 0.083333
0.086158 0.214212 0.056782 -2.287977 0.245758 -8.618324 0.000000 0.000000 -0.000000 11.064021 -41.133767 11.610042 56.623277 29.639841 -34.819853 0.335818 49.114533 6.656491 -35.456579 24.529799 7.899659 54.264964 -7.784666 -36.371857 -25.716504 12.376326 -3.617866 0.000000 0.000000 0.000000 2.842759 21.118577 35.059198 -10.167854 -33.182387 28.230663 -23.952871 -9.928373 34.536631 0.000000 0.000000 0.000000 9.042455 -0.865992 21.842006 -0.408985 3.249477 -21.119179 -49.520777 -47.048834 70.540863 0.000000 0.000000 0.000000 3.759670 -0.218759 20.402232 -25.697724 -11.532877 -34.930328 -9.463123 13.655566 66.648546 0.000000 0.000000 0.000000
0.104450 0.219677 0.034549 -4.983344 -0.107945 -11.224862 0.000000 0.000000 -0.000000 13.829336 -54.082051 13.582469 69.667919 26.554193 -37.193336 7.387579 56.731069 7.996455 -31.655672 37.269195 16.848445 50.652805 -14.688266 -36.151352 -26.583311 13.554303 -1.132448 0.000000 0.000000 0.000000 -2.195744 23.136093 66.602670 8.180282 -52.486080 42.294682 -41.619313 -49.182537 58.798321 0.000000 0.000000 0.000000 10.673276 -0.518074 25.971562 -1.002530 3.066623 -23.703383 -54.325616 -52.694593 87.545624 0.000000 0.000000 0.000000 4.465280 1.315687 23.724458 -24.378232 -15.168736 -39.975132 -23.277198 19.799872 85.117095 0.000000 0.000000 0.000000
0.110852 0.217036 0.058421 -4.998581 -0.086086 -11.227642 0.000000 0.000000 0.000000 12.226745 -47.377758 13.343667 63.942215 27.779633 -32.113214 8.330288 51.825101 10.475455 -31.626542 33.744467 11.166040 55.777964 -17.219506 -39.718262 -30.919364 11.035373 -2.754143 0.000000 0.000000 0.000000 -0.022133 26.448351 45.622512 32.028128 -49.852276 -105.570357 -42.538993 -33.991620 40.752753 0.000000 0.000000 0.000000 11.990277 0.302418 24.360166 -3.867309 2.497402 -21.787271 -37.531567 -55.372938 82.155852 0.000000 0.000000 0.000000 2.830107 1.708906 23.257372 -20.879591 -15.921687 -39.651138 -19.356890 14.916602 79.410711 0.000000 0.000000 0.000000
0.094736 0.205863 0.109841 -10.993329 -1.239564 -9.803276 0.000000 0.000000 0.000000 8.977103 -30.310310 9.743574 52.333701 25.903001 -25.099679 10.110343 42.101702 8.663751 -28.314545 11.432282 5.433257 55.972083 -18.991052 -46.310418 -29.845789 11.530777 -4.111822 0.000000 0.000000 0.000000 8.239071 20.940507 21.770348 20.566718 -25.623288 -51.871625 -26.094503 -7.992865 19.948406 0.000000 0.000000 0.000000 17.876462 2.505385 19.915108 -6.571634 1.551044 -17.232593 -24.763431 -45.966847 61.982285 0.000000 0.000000 0.000000 6.484951 4.039191 18.129346 -14.295767 -14.677456 -32.025900 -15.278314 13.585280 63.943836 0.000000 0.000000 0.000000
0.067952 0.195939 0.152328 -23.932429 -3.575102 -7.170050 0.000000 0.000000 0.000000 4.976586 -4.508187 4.629111 35.728780 16.289836 -10.137647 25.687523 23.221341 0.242214 -12.353391 -13.722960 -2.167068 34.882086 -23.232033 -29.317571 -10.624412 20.606866 -13.375235 0.000000 0.000000 0.000000 20.490629 5.450003 5.399345 -4.212163 -8.333385 -13.955274 -2.039126 6.852302 -0.576311 0.000000 0.000000 0.000000 27.974575 5.549178 12.199656 -7.468237 0.162165 -9.076642 -4.946910 -30.432962 30.441022 0.000000 0.000000 0.000000 15.893886 8.371453 9.559821 -4.094629 -10.689046 -17.334608 -0.912699 5.950362 29.974097 0.000000 0.000000 0.000000
0.053030 0.190287 0.173442 -28.647669 -4.095035 -4.799707 0.000000 0.000000 0.000000 3.964050 7.018010 5.601143 34.625658 3.105015 -8.208349 33.273674 8.207940 -7.671856 -4.964951 -23.111810 -6.169407 22.972904 -15.026447 -11.609026 4.022902 17.928353 -24.848272 0.000000 0.000000 0.000000 21.667370 -3.589741 1.667044 -3.396542 -5.812919 -6.752449 1.722141 3.582975 -1.657697 0.000000 0.000000 0.000000 32.602405 5.521429 8.106420 -10.269702 -0.357674 -4.165976 6.530228 -14.886887 8.965538 0.000000 0.000000 0.000000 22.511233 8.000471 4.559465 -2.328631 -5.611680 -8.183133 3.783503 0.991309 13.384167 0.000000 0.000000 0.000000
0.050535 0.185832 0.181124 -26.441403 -3.693477 -4.573042 0.000000 0.000000 0.000000 3.856898 8.600656 6.263844 33.574339 -2.659108 -8.947699 33.494986 1.818266 -11.917226 -6.407645 -22.588533 -8.632457 22.878760 -10.229731 -6.863197 4.976574 14.302519 -23.524597 0.000000 0.000000 0.000000 15.490048 -5.114664 0.923501 -6.774818 0.485798 -2.452682 6.823900 0.089740 -2.515234 0.000000 0.000000 0.000000 31.465132 5.158759 8.599160 -13.607457 -0.944859 -4.690402 7.733780 -11.010952 7.526727 0.000000 0.000000 0.000000 24.908321 5.767592 1.359330 -3.735751 -2.058296 -2.054652 5.883200 -7.592149 8.056615 0.000000 0.000000 0.000000
0.059639 0.181708 0.170929 -23.035059 -3.285991 -5.894616 0.000000 0.000000 0.000000 4.384891 2.657165 5.794382 32.821346 1.792588 -10.466316 30.240308 7.206259 -10.177488 -9.377593 -14.844251 -8.024427 28.557682 -8.759729 -9.793043 -1.708215 17.036523 -11.486403 0.000000 0.000000 0.000000 9.434110 2.439301 -1.511228 -11.248294 -2.415971 -0.957356 11.756426 0.603850 -4.500996 0.000000 0.000000 0.000000 33.683206 6.332433 11.419081 -18.881167 -1.425034 -10.644972 6.110485 -17.697844 18.526931 0.000000 0.000000 0.000000 24.971960 4.503861 2.680572 -7.036150 -0.947326 -2.239288 6.972536 -11.564756 9.160937 0.000000 0.000000 0.000000
0.088544 0.195913 0.115354 -16.603107 -2.298577 -8.233723 0.000000 0.000000 0.000000 5.902346 -9.731141 7.264941 37.251273 13.528446 -14.953763 20.557157 21.859002 -1.892759 -17.825932 -3.504142 -4.276483 38.753659 -9.002971 -19.005846 -10.137195 16.098741 -8.772829 0.000000 0.000000 0.000000 5.756367 14.809161 -2.329841 -6.560723 -19.205022 -4.520086 10.528002 0.919364 -3.872750 0.000000 0.000000 0.000000 30.699586 6.380281 16.030712 -16.207732 0.057805 -17.732600 -1.514669 -30.746931 35.412746 0.000000 0.000000 0.000000 16.996557 4.072331 9.859840 -9.404642 -3.832900 -11.355384 7.666496 -14.150879 22.476901 0.000000 0.000000 0.000000
0.101099 0.220848 0.074909 -7.927518 -0.694586 -11.316929 0.000000 0.000000 0.000000 10.900972 -35.487684 11.394088 54.645932 27.428124 -29.667692 8.263460 47.927317 4.117513 -30.658211 10.823003 -7.005240 57.317432 -10.222662 -31.687097 -18.404369 10.842891 6.727237 0.000000 0.000000 0.000000 2.570224 29.622147 19.235705 24.182609 -46.688768 -11.505029 -10.238681 -17.759014 13.208087 0.000000 0.000000 0.000000 20.526988 4.329922 21.433382 -10.955268 1.259267 -20.875429 -15.765881 -38.572435 48.297871 0.000000 0.000000 0.000000 7.297296 2.300149 20.549678 -13.937038 -9.652592 -28.235606 2.236546 -13.802361 52.270488 0.000000 0.000000 0.000000
0.096722 0.243281 0.064312 -5.489988 -0.109583 -14.387606 0.000000 0.000000 0.000000 20.474914 -60.508536 19.958254 78.338371 22.018290 -44.032807 20.223979 63.213124 -11.874290 -35.550940 7.583840 -41.980021 81.931712 -6.821096 -35.182175 -3.970192 -11.838686 36.482697 0.000000 0.000000 0.000000 -2.006951 33.504324 65.482012 66.352189 -69.105794 4.611338 -41.005180 -66.418617 54.159305 0.000000 0.000000 0.000000 15.576374 2.918014 26.279079 -3.648789 2.667701 -25.899490 -45.201389 -46.523299 67.758276 0.000000 0.000000 0.000000 3.099058 2.098070 24.821684 -13.320442 -16.219221 -38.263180 -9.729002 -12.668504 83.689226 0.000000 0.000000 0.000000
0.128243 0.251721 0.064786 -5.551644 -0.026365 -16.168642 0.000000 0.000000 0.000000 29.592158 -73.729095 27.206547 81.546198 16.062155 -45.032957 46.462534 67.678933 -39.815489 -29.167142 -15.308092 -67.920287 87.258342 -1.623758 -40.424879 29.498275 -32.099735 50.006927 0.000000 0.000000 0.000000 -4.367983 46.109831 72.410705 31.040615 -67.756994 38.718615 -10.740210 -70.236336 89.656643 0.000000 0.000000 0.000000 17.099797 3.467185 29.274676 -5.085911 2.880514 -30.003960 -54.790172 -48.986175 77.539812 0.000000 0.000000 0.000000 4.071704 1.804376 24.020129 -12.619589 -17.636133 -38.045660 -15.848142 -19.427365 102.860914 0.000000 0.000000 0.000000
0.174969 0.255694 0.053039 -3.705716 0.557429 -17.938837 0.000000 0.000000 0.000000 21.857553 -61.665475 25.170719 70.840859 21.291365 -38.709803 26.214603 59.331332 -15.402404 -19.353777 16.370625 27.716463 55.852410 -20.943111 -76.135650 -10.710173 -29.091489 -7.806252 0.000000 0.000000 0.000000 -13.883331 43.680827 61.032229 89.016984 -63.129983 -90.947488 -11.359880 -68.900008 71.264153 0.000000 0.000000 0.000000 15.013059 3.367761 29.072932 -4.167178 2.336997 -27.238737 -29.045841 -52.003913 71.329295 0.000000 0.000000 0.000000 1.452876 0.907446 25.437997 -9.180741 -18.850640 -39.309353 -14.461246 -16.937878 95.680360 0.000000 0.000000 0.000000
